<svg id="visual" viewBox="0 0 900 600" width="900" height="600" xmlns="http://www.w3.org/2000/svg" xmlns:xlink="http://www.w3.org/1999/xlink" version="1.1"><g stroke-width="1" stroke-linejoin="bevel"><path d="M430 339L338 324L412 384Z" fill="#186073" stroke="#186073"></path><path d="M338 324L331 419L412 384Z" fill="#186073" stroke="#186073"></path><path d="M430 339L430 237L338 324Z" fill="#3bd96c" stroke="#3bd96c"></path><path d="M331 419L410 467L412 384Z" fill="#007585" stroke="#007585"></path><path d="M532 375L502 305L430 339Z" fill="#00c783" stroke="#00c783"></path><path d="M532 375L430 339L412 384Z" fill="#186073" stroke="#186073"></path><path d="M430 339L502 305L430 237Z" fill="#17191d" stroke="#17191d"></path><path d="M487 481L532 375L412 384Z" fill="#214d5f" stroke="#214d5f"></path><path d="M198 281L225 384L338 324Z" fill="#186073" stroke="#186073"></path><path d="M338 324L225 384L331 419Z" fill="#00c783" stroke="#00c783"></path><path d="M331 419L274 529L410 467Z" fill="#233a49" stroke="#233a49"></path><path d="M430 237L312 197L338 324Z" fill="#008a92" stroke="#008a92"></path><path d="M410 467L487 481L412 384Z" fill="#233a49" stroke="#233a49"></path><path d="M638 426L561 311L532 375Z" fill="#1f2933" stroke="#1f2933"></path><path d="M532 375L561 311L502 305Z" fill="#00b491" stroke="#00b491"></path><path d="M502 305L532 198L430 237Z" fill="#007585" stroke="#007585"></path><path d="M225 384L233 471L331 419Z" fill="#3bd96c" stroke="#3bd96c"></path><path d="M410 467L467 600L487 481Z" fill="#233a49" stroke="#233a49"></path><path d="M228 208L198 281L338 324Z" fill="#3bd96c" stroke="#3bd96c"></path><path d="M225 384L106 415L233 471Z" fill="#186073" stroke="#186073"></path><path d="M312 197L228 208L338 324Z" fill="#008a92" stroke="#008a92"></path><path d="M561 311L532 198L502 305Z" fill="#008a92" stroke="#008a92"></path><path d="M430 237L475 128L312 197Z" fill="#007585" stroke="#007585"></path><path d="M233 471L274 529L331 419Z" fill="#008a92" stroke="#008a92"></path><path d="M532 198L475 128L430 237Z" fill="#007585" stroke="#007585"></path><path d="M312 197L283 91L228 208Z" fill="#009f96" stroke="#009f96"></path><path d="M561 311L571 190L532 198Z" fill="#17191d" stroke="#17191d"></path><path d="M532 198L571 190L475 128Z" fill="#214d5f" stroke="#214d5f"></path><path d="M274 529L403 600L410 467Z" fill="#1f2933" stroke="#1f2933"></path><path d="M467 600L569 523L487 481Z" fill="#1f2933" stroke="#1f2933"></path><path d="M487 481L569 523L532 375Z" fill="#233a49" stroke="#233a49"></path><path d="M561 311L676 223L571 190Z" fill="#233a49" stroke="#233a49"></path><path d="M403 600L467 600L410 467Z" fill="#00c783" stroke="#00c783"></path><path d="M202 600L296 600L274 529Z" fill="#007585" stroke="#007585"></path><path d="M274 529L296 600L403 600Z" fill="#007585" stroke="#007585"></path><path d="M569 523L638 426L532 375Z" fill="#3bd96c" stroke="#3bd96c"></path><path d="M362 67L283 91L312 197Z" fill="#00b491" stroke="#00b491"></path><path d="M475 128L362 67L312 197Z" fill="#007585" stroke="#007585"></path><path d="M90 300L225 384L198 281Z" fill="#186073" stroke="#186073"></path><path d="M90 300L106 415L225 384Z" fill="#00b491" stroke="#00b491"></path><path d="M233 471L202 600L274 529Z" fill="#00c783" stroke="#00c783"></path><path d="M90 300L198 281L75 185Z" fill="#214d5f" stroke="#214d5f"></path><path d="M676 484L661 404L638 426Z" fill="#186073" stroke="#186073"></path><path d="M638 426L661 404L561 311Z" fill="#214d5f" stroke="#214d5f"></path><path d="M75 185L198 281L228 208Z" fill="#233a49" stroke="#233a49"></path><path d="M95 532L202 600L233 471Z" fill="#00b491" stroke="#00b491"></path><path d="M730 292L676 223L561 311Z" fill="#3bd96c" stroke="#3bd96c"></path><path d="M534 0L425 0L475 128Z" fill="#3bd96c" stroke="#3bd96c"></path><path d="M475 128L425 0L362 67Z" fill="#233a49" stroke="#233a49"></path><path d="M201 0L164 111L283 91Z" fill="#00b491" stroke="#00b491"></path><path d="M283 91L164 111L228 208Z" fill="#214d5f" stroke="#214d5f"></path><path d="M630 600L676 484L569 523Z" fill="#008a92" stroke="#008a92"></path><path d="M569 523L676 484L638 426Z" fill="#214d5f" stroke="#214d5f"></path><path d="M661 404L730 292L561 311Z" fill="#008a92" stroke="#008a92"></path><path d="M0 520L95 532L106 415Z" fill="#009f96" stroke="#009f96"></path><path d="M106 415L95 532L233 471Z" fill="#00b491" stroke="#00b491"></path><path d="M164 111L75 185L228 208Z" fill="#00c783" stroke="#00c783"></path><path d="M90 300L0 337L106 415Z" fill="#00b491" stroke="#00b491"></path><path d="M627 68L475 128L571 190Z" fill="#3bd96c" stroke="#3bd96c"></path><path d="M362 67L325 0L283 91Z" fill="#3bd96c" stroke="#3bd96c"></path><path d="M120 0L124 110L164 111Z" fill="#00b491" stroke="#00b491"></path><path d="M164 111L124 110L75 185Z" fill="#1f2933" stroke="#1f2933"></path><path d="M425 0L325 0L362 67Z" fill="#17191d" stroke="#17191d"></path><path d="M786 379L730 292L661 404Z" fill="#17191d" stroke="#17191d"></path><path d="M467 600L630 600L569 523Z" fill="#00b491" stroke="#00b491"></path><path d="M708 79L627 68L676 223Z" fill="#007585" stroke="#007585"></path><path d="M676 223L627 68L571 190Z" fill="#009f96" stroke="#009f96"></path><path d="M627 68L534 0L475 128Z" fill="#3bd96c" stroke="#3bd96c"></path><path d="M0 234L0 337L90 300Z" fill="#17191d" stroke="#17191d"></path><path d="M0 337L0 414L106 415Z" fill="#00c783" stroke="#00c783"></path><path d="M95 532L87 600L202 600Z" fill="#1f2933" stroke="#1f2933"></path><path d="M0 600L87 600L95 532Z" fill="#17191d" stroke="#17191d"></path><path d="M325 0L201 0L283 91Z" fill="#009f96" stroke="#009f96"></path><path d="M627 68L568 0L534 0Z" fill="#233a49" stroke="#233a49"></path><path d="M75 185L0 234L90 300Z" fill="#00b491" stroke="#00b491"></path><path d="M0 107L0 234L75 185Z" fill="#00b491" stroke="#00b491"></path><path d="M0 107L75 185L124 110Z" fill="#009f96" stroke="#009f96"></path><path d="M676 484L786 379L661 404Z" fill="#007585" stroke="#007585"></path><path d="M784 181L708 79L676 223Z" fill="#186073" stroke="#186073"></path><path d="M798 502L786 379L676 484Z" fill="#214d5f" stroke="#214d5f"></path><path d="M0 414L0 520L106 415Z" fill="#00c783" stroke="#00c783"></path><path d="M784 181L676 223L730 292Z" fill="#3bd96c" stroke="#3bd96c"></path><path d="M627 68L709 0L568 0Z" fill="#008a92" stroke="#008a92"></path><path d="M201 0L120 0L164 111Z" fill="#1f2933" stroke="#1f2933"></path><path d="M630 600L733 600L676 484Z" fill="#009f96" stroke="#009f96"></path><path d="M812 274L784 181L730 292Z" fill="#00b491" stroke="#00b491"></path><path d="M900 307L812 274L786 379Z" fill="#214d5f" stroke="#214d5f"></path><path d="M786 379L812 274L730 292Z" fill="#1f2933" stroke="#1f2933"></path><path d="M733 600L798 502L676 484Z" fill="#17191d" stroke="#17191d"></path><path d="M120 0L0 107L124 110Z" fill="#214d5f" stroke="#214d5f"></path><path d="M0 520L0 600L95 532Z" fill="#009f96" stroke="#009f96"></path><path d="M733 600L765 600L798 502Z" fill="#1f2933" stroke="#1f2933"></path><path d="M900 160L795 119L784 181Z" fill="#00c783" stroke="#00c783"></path><path d="M784 181L795 119L708 79Z" fill="#17191d" stroke="#17191d"></path><path d="M708 79L709 0L627 68Z" fill="#214d5f" stroke="#214d5f"></path><path d="M789 0L709 0L708 79Z" fill="#007585" stroke="#007585"></path><path d="M120 0L0 0L0 107Z" fill="#007585" stroke="#007585"></path><path d="M900 427L900 307L786 379Z" fill="#214d5f" stroke="#214d5f"></path><path d="M812 274L900 160L784 181Z" fill="#17191d" stroke="#17191d"></path><path d="M900 427L786 379L798 502Z" fill="#233a49" stroke="#233a49"></path><path d="M900 495L900 427L798 502Z" fill="#3bd96c" stroke="#3bd96c"></path><path d="M900 0L789 0L795 119Z" fill="#009f96" stroke="#009f96"></path><path d="M795 119L789 0L708 79Z" fill="#214d5f" stroke="#214d5f"></path><path d="M900 600L900 495L798 502Z" fill="#233a49" stroke="#233a49"></path><path d="M900 307L900 160L812 274Z" fill="#214d5f" stroke="#214d5f"></path><path d="M900 160L900 139L795 119Z" fill="#1f2933" stroke="#1f2933"></path><path d="M765 600L900 600L798 502Z" fill="#233a49" stroke="#233a49"></path><path d="M900 139L900 0L795 119Z" fill="#00c783" stroke="#00c783"></path></g></svg>