<svg id="visual" viewBox="0 0 900 600" width="900" height="600" xmlns="http://www.w3.org/2000/svg" xmlns:xlink="http://www.w3.org/1999/xlink" version="1.1"><g stroke-width="1" stroke-linejoin="bevel"><path d="M469 315L435 408L531 360Z" fill="#bf5dc1" stroke="#bf5dc1"></path><path d="M469 315L372 325L435 408Z" fill="#1e2331" stroke="#1e2331"></path><path d="M594 290L493 237L469 315Z" fill="#42406e" stroke="#42406e"></path><path d="M469 315L400 222L372 325Z" fill="#6c4f95" stroke="#6c4f95"></path><path d="M435 408L566 479L531 360Z" fill="#6c4f95" stroke="#6c4f95"></path><path d="M625 422L594 290L531 360Z" fill="#42406e" stroke="#42406e"></path><path d="M531 360L594 290L469 315Z" fill="#262d45" stroke="#262d45"></path><path d="M566 479L625 422L531 360Z" fill="#17191d" stroke="#17191d"></path><path d="M269 289L313 362L372 325Z" fill="#554882" stroke="#554882"></path><path d="M372 325L313 362L435 408Z" fill="#554882" stroke="#554882"></path><path d="M435 408L465 537L566 479Z" fill="#a15ab4" stroke="#a15ab4"></path><path d="M493 237L400 222L469 315Z" fill="#17191d" stroke="#17191d"></path><path d="M392 527L465 537L435 408Z" fill="#17191d" stroke="#17191d"></path><path d="M338 508L392 527L435 408Z" fill="#262d45" stroke="#262d45"></path><path d="M313 362L338 508L435 408Z" fill="#17191d" stroke="#17191d"></path><path d="M671 505L625 422L566 479Z" fill="#32375a" stroke="#32375a"></path><path d="M671 505L679 435L625 422Z" fill="#262d45" stroke="#262d45"></path><path d="M625 422L700 273L594 290Z" fill="#6c4f95" stroke="#6c4f95"></path><path d="M700 273L616 203L594 290Z" fill="#bf5dc1" stroke="#bf5dc1"></path><path d="M594 290L616 203L493 237Z" fill="#554882" stroke="#554882"></path><path d="M493 237L467 99L400 222Z" fill="#32375a" stroke="#32375a"></path><path d="M314 201L269 289L372 325Z" fill="#554882" stroke="#554882"></path><path d="M313 362L222 510L338 508Z" fill="#bf5dc1" stroke="#bf5dc1"></path><path d="M389 91L314 201L400 222Z" fill="#a15ab4" stroke="#a15ab4"></path><path d="M400 222L314 201L372 325Z" fill="#554882" stroke="#554882"></path><path d="M321 600L425 600L392 527Z" fill="#de5fcb" stroke="#de5fcb"></path><path d="M392 527L425 600L465 537Z" fill="#262d45" stroke="#262d45"></path><path d="M622 600L671 505L566 479Z" fill="#42406e" stroke="#42406e"></path><path d="M538 600L566 479L465 537Z" fill="#8555a5" stroke="#8555a5"></path><path d="M425 600L538 600L465 537Z" fill="#6c4f95" stroke="#6c4f95"></path><path d="M679 435L700 273L625 422Z" fill="#32375a" stroke="#32375a"></path><path d="M726 201L700 273L820 315Z" fill="#8555a5" stroke="#8555a5"></path><path d="M231 164L215 298L269 289Z" fill="#17191d" stroke="#17191d"></path><path d="M269 289L215 298L313 362Z" fill="#32375a" stroke="#32375a"></path><path d="M616 203L467 99L493 237Z" fill="#8555a5" stroke="#8555a5"></path><path d="M538 600L622 600L566 479Z" fill="#1e2331" stroke="#1e2331"></path><path d="M338 508L321 600L392 527Z" fill="#262d45" stroke="#262d45"></path><path d="M222 510L321 600L338 508Z" fill="#8555a5" stroke="#8555a5"></path><path d="M162 383L222 510L313 362Z" fill="#8555a5" stroke="#8555a5"></path><path d="M467 99L389 91L400 222Z" fill="#1e2331" stroke="#1e2331"></path><path d="M314 201L231 164L269 289Z" fill="#32375a" stroke="#32375a"></path><path d="M700 273L726 201L616 203Z" fill="#de5fcb" stroke="#de5fcb"></path><path d="M616 203L608 73L467 99Z" fill="#32375a" stroke="#32375a"></path><path d="M822 372L700 273L679 435Z" fill="#42406e" stroke="#42406e"></path><path d="M215 298L162 383L313 362Z" fill="#bf5dc1" stroke="#bf5dc1"></path><path d="M389 91L285 117L314 201Z" fill="#de5fcb" stroke="#de5fcb"></path><path d="M215 298L106 315L162 383Z" fill="#32375a" stroke="#32375a"></path><path d="M622 600L699 600L671 505Z" fill="#42406e" stroke="#42406e"></path><path d="M798 514L822 372L679 435Z" fill="#a15ab4" stroke="#a15ab4"></path><path d="M285 117L231 164L314 201Z" fill="#de5fcb" stroke="#de5fcb"></path><path d="M717 124L608 73L616 203Z" fill="#a15ab4" stroke="#a15ab4"></path><path d="M467 99L388 0L389 91Z" fill="#32375a" stroke="#32375a"></path><path d="M726 201L717 124L616 203Z" fill="#42406e" stroke="#42406e"></path><path d="M798 514L679 435L671 505Z" fill="#262d45" stroke="#262d45"></path><path d="M726 201L785 165L717 124Z" fill="#17191d" stroke="#17191d"></path><path d="M222 510L216 600L321 600Z" fill="#1e2331" stroke="#1e2331"></path><path d="M73 600L216 600L222 510Z" fill="#42406e" stroke="#42406e"></path><path d="M822 372L820 315L700 273Z" fill="#de5fcb" stroke="#de5fcb"></path><path d="M699 600L798 514L671 505Z" fill="#a15ab4" stroke="#a15ab4"></path><path d="M820 315L785 165L726 201Z" fill="#1e2331" stroke="#1e2331"></path><path d="M596 0L518 0L608 73Z" fill="#8555a5" stroke="#8555a5"></path><path d="M608 73L518 0L467 99Z" fill="#6c4f95" stroke="#6c4f95"></path><path d="M389 91L335 0L285 117Z" fill="#8555a5" stroke="#8555a5"></path><path d="M596 0L608 73L682 0Z" fill="#a15ab4" stroke="#a15ab4"></path><path d="M112 213L106 315L215 298Z" fill="#32375a" stroke="#32375a"></path><path d="M162 383L68 480L222 510Z" fill="#bf5dc1" stroke="#bf5dc1"></path><path d="M285 117L177 101L231 164Z" fill="#554882" stroke="#554882"></path><path d="M518 0L388 0L467 99Z" fill="#de5fcb" stroke="#de5fcb"></path><path d="M682 0L608 73L717 124Z" fill="#17191d" stroke="#17191d"></path><path d="M699 600L793 600L798 514Z" fill="#17191d" stroke="#17191d"></path><path d="M798 514L900 417L822 372Z" fill="#de5fcb" stroke="#de5fcb"></path><path d="M388 0L335 0L389 91Z" fill="#6c4f95" stroke="#6c4f95"></path><path d="M231 164L112 213L215 298Z" fill="#8555a5" stroke="#8555a5"></path><path d="M177 101L112 213L231 164Z" fill="#6c4f95" stroke="#6c4f95"></path><path d="M222 0L177 101L285 117Z" fill="#1e2331" stroke="#1e2331"></path><path d="M0 436L68 403L0 265Z" fill="#17191d" stroke="#17191d"></path><path d="M106 315L68 403L162 383Z" fill="#a15ab4" stroke="#a15ab4"></path><path d="M900 208L819 136L785 165Z" fill="#de5fcb" stroke="#de5fcb"></path><path d="M785 165L819 136L717 124Z" fill="#1e2331" stroke="#1e2331"></path><path d="M900 208L785 165L820 315Z" fill="#de5fcb" stroke="#de5fcb"></path><path d="M68 403L68 480L162 383Z" fill="#6c4f95" stroke="#6c4f95"></path><path d="M837 0L682 0L717 124Z" fill="#32375a" stroke="#32375a"></path><path d="M900 525L900 417L798 514Z" fill="#554882" stroke="#554882"></path><path d="M822 372L900 303L820 315Z" fill="#554882" stroke="#554882"></path><path d="M900 417L900 303L822 372Z" fill="#32375a" stroke="#32375a"></path><path d="M177 101L111 114L112 213Z" fill="#32375a" stroke="#32375a"></path><path d="M0 265L68 403L106 315Z" fill="#1e2331" stroke="#1e2331"></path><path d="M132 0L111 114L177 101Z" fill="#42406e" stroke="#42406e"></path><path d="M335 0L222 0L285 117Z" fill="#554882" stroke="#554882"></path><path d="M793 600L900 525L798 514Z" fill="#8555a5" stroke="#8555a5"></path><path d="M900 303L900 208L820 315Z" fill="#32375a" stroke="#32375a"></path><path d="M819 136L837 0L717 124Z" fill="#262d45" stroke="#262d45"></path><path d="M68 480L73 600L222 510Z" fill="#bf5dc1" stroke="#bf5dc1"></path><path d="M68 403L0 436L68 480Z" fill="#de5fcb" stroke="#de5fcb"></path><path d="M68 480L0 530L73 600Z" fill="#8555a5" stroke="#8555a5"></path><path d="M0 265L106 315L112 213Z" fill="#de5fcb" stroke="#de5fcb"></path><path d="M793 600L900 600L900 525Z" fill="#17191d" stroke="#17191d"></path><path d="M900 208L900 137L819 136Z" fill="#de5fcb" stroke="#de5fcb"></path><path d="M0 237L0 265L112 213Z" fill="#554882" stroke="#554882"></path><path d="M0 114L0 237L112 213Z" fill="#262d45" stroke="#262d45"></path><path d="M0 436L0 530L68 480Z" fill="#de5fcb" stroke="#de5fcb"></path><path d="M222 0L132 0L177 101Z" fill="#554882" stroke="#554882"></path><path d="M111 114L0 114L112 213Z" fill="#8555a5" stroke="#8555a5"></path><path d="M900 137L837 0L819 136Z" fill="#17191d" stroke="#17191d"></path><path d="M0 530L0 600L73 600Z" fill="#1e2331" stroke="#1e2331"></path><path d="M0 0L0 114L111 114Z" fill="#a15ab4" stroke="#a15ab4"></path><path d="M900 137L900 0L837 0Z" fill="#17191d" stroke="#17191d"></path><path d="M132 0L0 0L111 114Z" fill="#32375a" stroke="#32375a"></path></g></svg>